<?xml version="1.0" encoding="utf-8" ?>
<svg xmlns="http://www.w3.org/2000/svg" xmlns:xlink="http://www.w3.org/1999/xlink" width="2006" height="1231">
	<path fill="#485E9A" transform="scale(0.489642 0.489551)" d="M2048.36 113.804C2052.3 115.262 2054.13 116.392 2056.59 118.82C2080.42 142.37 2099.68 168.857 2120.94 193.386L2261.64 356.957L3617.96 1957.7L3887.32 2275.71L3971.16 2374.58C3992.05 2399.37 4012.07 2424.6 4035.21 2448.64C4007.44 2450.04 3978.85 2449.7 3950.97 2449.94L3801.05 2450.71L3374.28 2451.63L2045.5 2452.77L646.604 2451.74C452.086 2450.99 256.648 2454.09 62.2718 2449.89C72.8924 2434.9 86.9563 2420.38 99.3604 2405.89L159.336 2334.89L374.669 2081.08L1155.88 1161.55Q1477.78 775.277 1807.4 391.485C1823.36 372.637 1837.74 353.291 1853.34 334.331C1899.43 278.323 1946.46 221.963 1996.67 167.315C2012.48 150.107 2027.58 128.869 2048.36 113.804ZM2048.21 727.932C2022.94 745.399 1991.23 787.12 1972.37 808.961C1901.41 891.129 1835.45 974.854 1766.46 1057.64L1211.8 1711.83L1001.59 1957.75L948.162 2019.82C939.817 2029.44 927.315 2040.38 922.629 2050.8C923.856 2053.81 923.642 2053.77 927.801 2055.5C956.143 2057.79 991.601 2055.84 1020.59 2055.92L1243.92 2056.3L1842.96 2058.07C1909.54 2058.3 1976.34 2057.07 2042.88 2057.76C2160.64 2057.77 3163.73 2057.89 3169.9 2055.52C3173.08 2044.01 3120.22 1989.04 3108.03 1974.81L2434.67 1185.58L2148.14 839.945C2122.41 809.473 2097.15 778.854 2069.59 748.976C2064.11 743.027 2057.9 734.128 2050.52 729.149C2049.84 728.688 2048.98 728.338 2048.21 727.932Z"/>
	<path fill="#41518C" transform="scale(0.489642 0.489551)" d="M2127.5 2166.54C2140.48 2165.86 2153.51 2164.97 2166.55 2165.03C2149.5 2195.71 2119.67 2226.18 2094.88 2254.86C2085.7 2241.18 2152.82 2191.94 2145.54 2172.14C2142.48 2169.74 2141 2168.83 2135.65 2168.37C2130.86 2167.96 2129.19 2168.29 2125.56 2170.06L2126.77 2171.44L2130.91 2170.37L2133.64 2172.11L2132.04 2173.28C2127.85 2173.11 2126.34 2172.95 2122.81 2171.42C2118.7 2169.64 2120.89 2170.27 2116.59 2169.05C2115.84 2168.83 2115.07 2168.65 2114.3 2168.46C2118.2 2168.12 2122.11 2167.89 2125.8 2167.02C2126.38 2166.88 2126.93 2166.7 2127.5 2166.54Z"/>
	<path fill="#FDFDFD" transform="scale(0.489642 0.489551)" d="M964.918 1780.26C970.667 1781.19 975.911 1783.44 980.262 1785.89C987.613 1790.02 990.567 1794.68 990.438 1800.78C990.242 1809.98 980.199 1822.66 969.273 1828.95C955.997 1823.72 947.125 1817.13 937.669 1809.56C945.127 1799.28 953.964 1789.3 964.918 1780.26Z"/>
	<path fill="#FDFDFD" transform="scale(0.489642 0.489551)" d="M2661.83 1037.04C2675.46 1041.47 2687.41 1054.83 2693.98 1063.19C2681.18 1076.81 2663.97 1089.65 2649.2 1102.54Q2607.66 1138.8 2568.67 1176.11C2582.38 1200.82 2612.65 1221.48 2626.94 1246.03C2630.82 1252.71 2634.7 1261.67 2628.68 1268.32C2625.35 1272.01 2620.59 1274.2 2614.06 1275.36C2596.8 1261.09 2583.16 1243.64 2568.81 1228.19C2550.74 1208.72 2528.98 1188.5 2515.51 1167.65C2527.01 1152.57 2545.75 1138.3 2561.04 1124.54C2593.66 1095.17 2626.56 1065.2 2661.83 1037.04Z"/>
	<path fill="#FDFDFD" transform="scale(0.489642 0.489551)" d="M1781.09 571.67C1786.94 572.447 1790.47 573.453 1794.63 576.141C1811.75 587.197 1824.8 603.019 1838.21 615.99Q1869.16 646.457 1902.75 675.85C1916.02 664.485 1965.45 607.516 1980.51 604.919C1991.99 607.021 1996.1 612.558 2001.76 618.484C1996.12 632.109 1983.74 644.679 1973 656.994C1953.41 679.849 1928 712.55 1900.42 731.341Q1858.94 688.024 1812.75 646.545C1796.77 632.272 1778.21 618.766 1763.97 603.814C1760.26 599.911 1758.05 597.115 1758.63 592.488C1759.79 583.215 1770.34 577.347 1781.09 571.67Z"/>
	<path fill="#FDFDFD" transform="scale(0.489642 0.489551)" d="M1211.57 1240.72C1215.47 1240.93 1214.65 1240.72 1217.8 1241.39C1224.91 1242.88 1235.09 1245.18 1237.95 1249.9C1246.39 1263.83 1207.66 1291.11 1199.84 1304.77C1199.61 1305.17 1199.41 1305.58 1199.19 1305.99C1227.21 1330.13 1307.49 1388.07 1320.05 1412.62C1322.67 1417.74 1321.14 1423.76 1316.7 1428.36C1313.32 1431.86 1310.09 1432.45 1304.11 1433.34C1283.93 1430.48 1264.94 1412.38 1252.32 1402.62C1224.78 1380.81 1200.28 1357.73 1173.31 1335.68C1165.21 1345.89 1149.85 1372.67 1134.29 1377.69C1129.47 1379.24 1127.38 1378.37 1122.78 1377.26C1117.42 1373.6 1112.27 1368.35 1111.27 1363.35C1108.47 1349.39 1193.28 1255.21 1211.57 1240.72Z"/>
	<path fill="#FDFDFD" transform="scale(0.489642 0.489551)" d="M1671.21 2132.27C1677.74 2132 1686.94 2131.11 1693.28 2132.33C1700.07 2133.64 1702.96 2136.19 1704.66 2140.32C1707.25 2146.64 1704.5 2155.57 1704.67 2162.23L1705.83 2232.05C1705.88 2248.15 1704.02 2265.43 1707.98 2281.37C1709.46 2287.34 1711.89 2293.32 1717.41 2298.4C1722.72 2303.29 1730.48 2306.39 1739.91 2307.4C1750.7 2308.56 1762.84 2307.46 1771.51 2303.13C1779.68 2299.05 1783.91 2292.72 1785.94 2286.53C1790.15 2273.65 1788.72 2259.51 1788.84 2246.43L1789.46 2179.29C1789.47 2164.98 1787.86 2149.85 1790.69 2135.65C1792.64 2134.07 1792.64 2133.6 1795.88 2132.91C1803.28 2131.33 1817.49 2132.06 1824.46 2134.15C1832.99 2141.19 1828.63 2160.44 1828.37 2169.31C1828.24 2205.18 1836.15 2289.68 1810.52 2319.49C1802.23 2329.13 1789.86 2336.88 1772.3 2339.69C1752.91 2342.8 1726.18 2341.64 1709.14 2335.11C1688.21 2327.09 1675.59 2311.91 1670.43 2297.43C1664.53 2280.87 1661.74 2141.22 1671.21 2132.27Z"/>
	<path fill="#FDFDFD" transform="scale(0.489642 0.489551)" d="M1586.38 796.453C1595.9 797.018 1601.39 800.916 1607.32 805.148C1623.38 816.606 1637.26 829.982 1651.63 842.267C1681.07 867.446 1727.99 900.528 1723.95 933.487C1721.01 957.45 1695.05 1000.7 1664.52 1015.96C1656.24 1020.1 1646.3 1022.5 1635.52 1021.68C1594.35 1018.55 1532.39 955.222 1506.79 934.308C1501.47 930.008 1495.67 925.665 1491.17 921.029C1487.33 917.066 1484.99 911.834 1487.19 907.291C1490.98 899.447 1504.74 894.89 1515.42 890.934C1540.49 903.17 1583.89 948.961 1608.18 967.208C1615.38 972.615 1627.12 981.249 1639.62 981.276C1647.46 981.293 1653.41 979.115 1658.52 975.64C1706.2 943.179 1671.82 911.947 1638.05 883.384L1594.52 846.813C1583.51 837.633 1568.74 826.858 1568.71 814.833C1568.68 806.584 1577.24 801.734 1586.38 796.453Z"/>
	<path fill="#FDFDFD" transform="scale(0.489642 0.489551)" d="M2256.53 2133.3C2286.23 2133.03 2370 2131.4 2394.49 2135.99C2399.31 2139.11 2400.36 2142.08 2400.75 2146.35C2401.25 2151.72 2402.02 2158.86 2394.86 2162.82C2377.73 2172.31 2315.98 2165.6 2292.57 2164.36C2295.05 2179.97 2294.28 2196.22 2294.79 2211.93C2315.45 2212 2378.86 2209.76 2394.71 2215.82C2398.51 2221.7 2398 2231.89 2396.02 2238.08C2395.4 2240.03 2394.02 2242.16 2391.16 2243.21C2373.07 2249.89 2316.52 2244.28 2294.38 2242.39L2294.98 2274.61L2295.65 2305.36Q2349.04 2305.08 2402.43 2305.76C2404.64 2314.25 2409.05 2328.4 2401.71 2336.04C2382.73 2339.83 2276.76 2339.83 2255.98 2336.85C2252.85 2325.59 2254.18 2313.25 2254.1 2301.79L2254.24 2240.03L2254.74 2173.84C2254.89 2160.44 2253.9 2146.59 2256.53 2133.3Z"/>
	<path fill="#FDFDFD" transform="scale(0.489642 0.489551)" d="M2385.53 751.858C2395.07 751.536 2403.23 751.588 2411.76 754.546C2438.92 763.964 2462.74 790.385 2471.09 808.526C2478.29 824.15 2481.71 858.836 2467.46 872.85C2464.18 876.078 2460.95 877.217 2455.05 877.955C2431.93 872.523 2437.6 835.2 2434.45 821.531C2432.72 814.019 2429.05 806.196 2423.16 799.501C2419.12 794.905 2413.68 790.975 2405.15 789.621C2398.83 788.617 2393.91 788.986 2388.35 791.105C2370.91 805.833 2403.39 842.93 2409.79 859.754C2415.39 874.484 2418.67 891.322 2417.88 906.479C2417.09 921.472 2411.48 938.577 2392.29 948.895C2380.91 955.019 2366.05 957.927 2351.11 957.543C2332.48 952.779 2321.24 945.996 2310.23 935.86C2281.23 909.17 2267.66 874.83 2278.87 843.125C2281.49 835.717 2288.68 824.172 2300.94 820.799C2305.86 819.445 2307.86 820.073 2312.34 821.263C2334.83 837.947 2307.47 867.803 2315.22 887.367C2319.18 897.355 2333.07 911.55 2347.91 916.871C2353.42 918.845 2361.35 919.639 2367.32 918.041C2393.03 911.144 2358.15 856.961 2354.15 844.209C2347.22 822.082 2342.08 797.856 2353.92 775.966C2359.81 765.062 2368.82 757.161 2385.53 751.858Z"/>
	<path fill="#FDFDFD" transform="scale(0.489642 0.489551)" d="M2938.91 1345.03C2951.76 1357.77 3039.91 1448.68 3038.92 1457.13C3038.4 1461.54 3031.17 1467.12 3025.12 1469.23C3021.09 1470.65 3019.35 1470.71 3014.89 1470.65C2991.06 1460.95 2964.64 1416.49 2938.84 1399.07C2927.74 1405.2 2916.94 1411.16 2908.4 1418.76C2927.48 1443.28 2964.62 1480.46 2975.05 1505.04C2969.49 1510.94 2965.55 1516.34 2954.53 1518.69C2948.21 1518.35 2944.73 1517.14 2940.72 1514.21C2921.79 1500.4 2905.5 1460.57 2884.34 1452.36C2878.23 1452.51 2875.7 1454.61 2871.68 1457.35C2861.07 1464.56 2850.49 1472.36 2841.01 1480.14C2864.25 1507.6 2896.3 1538.72 2910.6 1568.24C2908.52 1575.18 2906.81 1581.42 2898.4 1586.54C2893.45 1587.35 2892.55 1587.67 2887.97 1585.78C2875.57 1580.64 2861.32 1556.36 2853.45 1547.63C2841.34 1530.71 2825.08 1514.29 2810.22 1498.23C2803.01 1489.62 2795.37 1481.07 2788.73 1472.29C2816 1448.4 2845.07 1425.33 2872.53 1401.52C2894.07 1382.85 2913.97 1361.97 2938.91 1345.03Z"/>
	<path fill="#FDFDFD" transform="scale(0.489642 0.489551)" d="M1086.8 1402.66C1094.82 1402.87 1102.78 1403.54 1110.29 1405.35C1118.02 1407.21 1127.81 1411.29 1130.41 1416.44C1141.32 1438.12 1073.7 1439.45 1056.92 1459.23C1050.16 1467.19 1043.67 1483.25 1049.43 1491.93C1051.27 1494.69 1053.86 1497.04 1058.75 1497.95C1077.25 1501.38 1108.25 1473.13 1121.33 1466.08C1135.8 1458.27 1149.63 1452.73 1167.24 1447.97C1177.23 1450.78 1185.22 1454.34 1192.51 1459.41C1214.22 1474.5 1227.52 1497.09 1225 1517.18C1222.03 1540.84 1191.94 1585.67 1161.56 1600.71C1151.63 1605.62 1145.47 1605.18 1133.27 1604.34C1117.3 1600.94 1101.04 1595.32 1093.45 1585.54C1090.07 1581.18 1089.52 1576.63 1092.45 1572.11C1096.91 1565.25 1107.43 1562.53 1117.69 1559.71C1127.25 1561.34 1136.63 1563.56 1146 1565.57C1149.76 1563.73 1153.45 1561.83 1156.75 1559.67C1173.86 1548.5 1187.42 1528.37 1186.31 1512.98C1185.55 1502.58 1179.51 1497.92 1167.39 1491.19C1134.52 1502.76 1117.24 1528.82 1083.54 1537.82C1072.71 1540.71 1060.24 1541.25 1049.39 1538.11C1032.77 1533.31 1023.31 1521.14 1017.6 1510.95C1003.44 1485.72 1013.7 1460.5 1032.77 1437.35C1045.11 1422.35 1059.69 1408.2 1086.8 1402.66Z"/>
	<path fill="#FDFDFD" transform="scale(0.489642 0.489551)" d="M788.785 1730.87C789.437 1730.98 790.107 1731.06 790.743 1731.2C796.912 1732.55 803.506 1735.86 806.237 1739.58C809.902 1744.58 809.054 1750.14 806.946 1755.34C797.125 1779.58 759.591 1811.22 745.052 1838.05C754.038 1847.79 765.622 1855.8 778.371 1863.72C800.088 1838.51 819.112 1811.25 847.013 1788.39C853.764 1792.79 862.461 1797.6 865.668 1803.42C871.77 1814.51 816.633 1873.7 805.747 1887.39C815.989 1900.08 832.268 1911.63 846.051 1922.95C866.374 1901.03 883.601 1877.56 902.107 1854.99C907.442 1848.74 912.986 1842.83 919.369 1836.96C929.443 1841.71 937.192 1846.56 945.418 1852.46C934.026 1880.69 872.903 1946.81 847.331 1974.59C821.395 1956.8 798.773 1936.38 775.841 1917.09C746.745 1892.61 713.238 1866.87 691.021 1839.9C708.362 1818.71 727.803 1798.01 746.12 1777.13C759.402 1761.98 771.748 1744.54 788.785 1730.87Z"/>
	<path fill="#FDFDFD" transform="scale(0.489642 0.489551)" d="M965.887 1522.04C968.432 1522.39 969.291 1522.4 971.643 1523.13C980.702 1525.94 984.061 1533.91 987.632 1539.33C971.971 1572.2 934.958 1599.7 922.113 1632.9C931.552 1640.92 942.864 1648.33 953.152 1655.96C975.597 1631.85 991.632 1601.21 1023.42 1580.98C1031.92 1584.19 1039.12 1587.61 1046.6 1591.63C1037.73 1619.26 1000.19 1654.04 982.238 1681.82C993.474 1693.25 1007.64 1704.66 1022.56 1714.35C1045.92 1694.11 1062.25 1669.79 1079.81 1647.46C1083.74 1642.4 1086.92 1636.38 1095.9 1634.01C1100.62 1632.77 1105.99 1632.55 1110.6 1634.15C1114.94 1635.66 1116.92 1638.16 1118.08 1641.03C1124.14 1656.03 1041.68 1749.84 1024.24 1766.69C999.566 1755.13 879.729 1652.05 868.427 1634.98C884.017 1611.79 905.123 1589.54 924.398 1567.42C937.599 1552.26 949.769 1536.05 965.887 1522.04Z"/>
	<path fill="#FDFDFD" transform="scale(0.489642 0.489551)" d="M1684.96 682.188C1713.95 684.187 1827.92 725.923 1854.68 737.861C1866.48 743.125 1875.98 748.493 1885.17 755.448C1884.61 760.016 1884.65 766.789 1880.88 770.788C1877.38 774.491 1872.4 777.176 1865.29 777.91C1847.62 779.732 1825.46 769.841 1811.5 764.105C1813.79 789.412 1790.08 805.586 1766.57 824.452L1772.32 837.894C1776.45 846.013 1781.72 853.966 1786.1 862.049C1791.66 872.313 1787.5 883.775 1779.15 893.103C1776.19 896.409 1773.47 898.049 1767.58 899.031C1765.38 898.574 1765.18 898.63 1763.02 897.648C1757.21 895.005 1753.18 888.172 1750.63 884.075C1735.32 859.483 1725.06 833.233 1711.91 808.106C1698.38 782.253 1667.28 736.777 1663.51 711.738C1661.93 701.223 1674.26 689.839 1684.96 682.188Z"/>
	<path fill="#41518C" transform="scale(0.489642 0.489551)" d="M1711.13 730.043C1735.9 733.708 1764.43 744.666 1781.97 755.834C1778.09 764.231 1773.61 772.336 1767.56 780.24C1763.02 784.162 1759.01 787.787 1751.92 790.024L1748.42 789.025C1731.2 774.301 1715.78 747.993 1711.13 730.043Z"/>
	<path fill="#FDFDFD" transform="scale(0.489642 0.489551)" d="M1280.39 1156.24C1302.97 1158.97 1468.21 1214.28 1484.41 1223.56C1487.07 1230.57 1480.36 1238.43 1474.37 1244.22C1469.28 1249.13 1463.64 1253.92 1454.02 1255.32C1440.36 1252.93 1426.54 1245.53 1414.4 1240.86C1404.8 1250.74 1397.31 1261.73 1388.76 1271.99C1378.98 1283.7 1366.27 1295.69 1359.39 1308.15C1364.93 1319.65 1375.95 1330.07 1383.83 1341.05C1381.84 1346.06 1378.89 1351.02 1375.97 1355.85C1372.42 1361.74 1367.56 1370.39 1357.94 1373.08C1357.4 1372.91 1356.81 1372.79 1356.31 1372.58C1345.26 1367.88 1260.29 1199.51 1254.88 1182.95C1261.46 1172.84 1269.12 1164.66 1280.39 1156.24Z"/>
	<path fill="#41518C" transform="scale(0.489642 0.489551)" d="M1306.78 1206.01C1332.54 1211.79 1353.89 1219.26 1375.01 1230.03C1369.25 1239.15 1362.44 1248.06 1355.99 1257.01L1343.59 1272.45C1334.66 1257.55 1303.84 1220.11 1306.78 1206.01Z"/>
	<path fill="#FDFDFD" transform="scale(0.489642 0.489551)" d="M2557.78 926.127C2561.18 926.225 2564.56 926.265 2567.81 926.969C2582.36 930.115 2589.46 940.589 2595.23 948.59C2591.41 984.333 2559.96 1030.48 2541.85 1065.17C2530.1 1087.69 2516.48 1123.65 2496.83 1143.36L2494.61 1143.58C2480.6 1137.98 2473.05 1123.27 2468.08 1113.79C2471.52 1105.84 2476.58 1097.97 2480.93 1090.18L2490.29 1071.78C2476.03 1053.22 2455.76 1028.96 2438.34 1011.51C2434.88 1012.47 2431.62 1013.55 2428.31 1014.69C2417.6 1018.39 2401.72 1025.23 2388.79 1022.01C2375.7 1018.75 2368.42 1006.77 2362.89 999.332C2386.32 984.513 2525.21 932.854 2557.78 926.127Z"/>
	<path fill="#41518C" transform="scale(0.489642 0.489551)" d="M2543.52 967.497C2546.66 976.172 2515.33 1027.64 2510.33 1040.54C2504.76 1035.92 2500.58 1030.99 2496.2 1025.93C2488.98 1017.71 2476.96 1007.33 2476.69 997.877C2495.07 986.541 2521.86 976.517 2543.52 967.497Z"/>
	<path fill="#FDFDFD" transform="scale(0.489642 0.489551)" d="M3066.92 1486.72L3070.57 1486.71C3072.85 1487.26 3074.53 1487.85 3076.13 1489.03C3087.88 1497.67 3091.05 1516.61 3090.41 1527.67C3089.63 1541.47 3083.51 1555.81 3078.92 1569.3C3067.93 1601.54 3053.64 1633.4 3046.42 1666.08C3064.33 1653.12 3080.65 1639.86 3096.29 1625.84C3113.75 1610.2 3130.37 1592.4 3152.5 1579.17C3162.87 1586.99 3167.97 1593.3 3171.9 1603.09C3169.88 1608.86 3166.79 1613.87 3162.03 1619C3145.88 1636.42 3124.5 1652.71 3105.65 1669.13C3079.84 1691.6 3054.11 1717.51 3023.54 1737.44L3020.75 1738.45C3017.56 1738.45 3016.95 1738.8 3014.27 1737.5C3002.41 1731.78 2996.67 1713.38 2996.79 1704.61C2996.98 1691.44 3002.82 1677.66 3006.74 1664.71Q3016.12 1632.14 3027.74 1599.85C3031.54 1589.43 3040.14 1574.67 3037.44 1564.08C3014.71 1570.53 2959.49 1642.56 2934.98 1645.59C2924.39 1640.89 2920.2 1626.91 2916.35 1619.36C2929.24 1608.8 2940.23 1597.08 2952.42 1586.16C2972.26 1568.37 2993 1550.97 3012.57 1533.07C3029.74 1517.36 3045.62 1500.46 3066.92 1486.72Z"/>
	<path fill="#FDFDFD" transform="scale(0.489642 0.489551)" d="M2445.73 2134.47C2463.93 2133.32 2482.48 2135.03 2500.45 2136.73C2509.27 2152.99 2512.67 2170.98 2516.95 2187.87C2524.65 2218.22 2530.82 2248.74 2538.11 2279.14C2545.85 2249.29 2555.59 2219.62 2563.26 2189.74C2566.69 2176.35 2566.91 2161.51 2572.02 2148.47C2573.67 2144.25 2576.25 2139.99 2581.96 2137.21C2592.5 2132.07 2614.34 2133.04 2626.94 2134.64C2632.48 2135.35 2634.33 2136.09 2637.56 2138.87C2640.88 2155.55 2637.99 2173.76 2637.58 2190.59Q2636.49 2238.02 2636.79 2285.46C2636.95 2298.19 2643.89 2323.97 2637.19 2334.76C2633.95 2336.7 2631.34 2337.64 2626.86 2338.25C2619.81 2339.22 2610.02 2339.48 2604.16 2336.41C2599.36 2333.89 2598.12 2329.3 2598.01 2325.63C2597.77 2317.27 2600.73 2308.51 2601.28 2300.07C2602.97 2273.85 2601.85 2247.52 2602.92 2221.27C2603.69 2202.53 2607.7 2183.21 2605.93 2164.53C2599.09 2180.14 2595.63 2196.47 2591.43 2212.41L2568.84 2302.94C2566.21 2313.13 2567.13 2324.5 2562.58 2334.27C2557.66 2337.7 2549.98 2339.06 2542.76 2339.62C2535.4 2340.18 2526.24 2339.64 2520.47 2336.43C2515.74 2333.81 2513.35 2330.63 2512.2 2326.8C2508.19 2313.44 2508.56 2298.89 2505.16 2285.21C2495.79 2247.44 2483.62 2210.01 2477.85 2171.94C2470.14 2192.95 2480.69 2333.93 2475.45 2336.66C2468.04 2340.53 2450.33 2338.57 2441.16 2338.2C2437.92 2313.88 2437.12 2147.24 2445.73 2134.47Z"/>
	<path fill="#FDFDFD" transform="scale(0.489642 0.489551)" d="M2778.94 1164.97C2798.12 1178.12 2815.71 1194.37 2824.38 1211.35C2811.28 1238.73 2788.83 1265.67 2769.68 1291.66C2760.39 1304.26 2750.27 1316.91 2744.38 1330.31C2767.82 1320.37 2850.85 1270.31 2867.1 1269.77C2884.44 1275.27 2900.74 1296.21 2906.68 1307.36C2907.08 1308.11 2907.46 1308.87 2907.84 1309.62C2891.59 1339.27 2792.89 1419.45 2755.79 1439.89C2747.48 1432.93 2741.07 1426.34 2735.06 1418.52C2743.94 1409.2 2757.38 1400.83 2764.94 1391.27L2761.92 1388.7C2763.72 1386.32 2762.68 1387.31 2765.3 1385.34C2784.16 1371.14 2814.38 1348.49 2826.62 1332.31C2824.46 1333.13 2822.21 1333.54 2819.81 1334.01C2815.22 1334.92 2815.31 1336.07 2812.87 1338.52L2810.94 1337.32L2811.97 1334.74L2811.04 1337.09L2808.81 1336.38C2796.61 1347.26 2776.16 1355.16 2759.91 1363.8L2763.18 1366.01L2758.99 1364.99L2755.11 1371.15L2754.28 1368.68L2752.34 1367.96L2742.38 1371.82L2738.98 1371.26C2729.01 1376.6 2718.59 1384.21 2704.42 1384.32C2693.3 1380.22 2685.97 1362.39 2682.09 1354.5C2714.75 1308.54 2748.1 1263.43 2777.51 1216.62L2775.29 1218.09C2746.04 1237.62 2680.31 1315.95 2654.14 1323.38C2644.54 1321.32 2639.39 1313.15 2635.22 1307.87C2632.84 1304.85 2630.83 1301.79 2629.16 1298.59C2665.85 1267.27 2700.26 1235.17 2735.81 1203.38C2749.94 1190.74 2763.07 1176.76 2778.94 1164.97Z"/>
	<path fill="#2A3F89" transform="scale(0.489642 0.489551)" d="M2738.98 1371.26C2762.21 1356.52 2788.27 1343.26 2813.4 1329.77C2826.91 1322.51 2840.08 1314.07 2855.12 1308.07C2838.22 1330.95 2792.87 1371.55 2764.94 1391.27L2761.92 1388.7C2763.72 1386.32 2762.68 1387.31 2765.3 1385.34C2784.16 1371.14 2814.38 1348.49 2826.62 1332.31C2824.46 1333.13 2822.21 1333.54 2819.81 1334.01C2815.22 1334.92 2815.31 1336.07 2812.87 1338.52L2810.94 1337.32L2811.97 1334.74L2811.04 1337.09L2808.81 1336.38C2796.61 1347.26 2776.16 1355.16 2759.91 1363.8L2763.18 1366.01L2758.99 1364.99L2755.11 1371.15L2754.28 1368.68L2752.34 1367.96L2742.38 1371.82L2738.98 1371.26Z"/>
	<path fill="#FDFDFD" transform="scale(0.489642 0.489551)" d="M1489.84 2133.7C1513.36 2133.17 1539.51 2131.56 1562.68 2134.8C1581.78 2137.47 1596.99 2144.46 1606.97 2154.8C1622.23 2170.59 1622.73 2190.43 1615.63 2207.75C1610.73 2210.24 1605.5 2212.73 1601.69 2215.88C1582.24 2231.99 1623.6 2244.16 1628.77 2264.97C1633.8 2285.27 1623.65 2310.56 1604.39 2327.23C1603.88 2327.52 1603.37 2327.8 1602.84 2328.08C1571.83 2344.73 1497.97 2339.02 1458.43 2337.29C1456.15 2293.57 1457.08 2249.72 1457.47 2205.98C1457.67 2183.26 1454.46 2158.16 1460.92 2135.83C1470.51 2134.98 1480.21 2134.4 1489.84 2133.7Z"/>
	<path fill="#41518C" transform="scale(0.489642 0.489551)" d="M1517.5 2164.18C1531.01 2164.28 1547.55 2164.88 1559.78 2168.57C1568.76 2171.27 1575.09 2175.5 1578.03 2181.42C1582.37 2190.16 1579.53 2200.34 1571.82 2208.09C1567.84 2212.09 1562.41 2212.78 1555.54 2213.85C1538.9 2214.51 1514.42 2217.35 1499.3 2212.91C1493.41 2200.84 1492.93 2179.48 1501.9 2167.99C1506.74 2164.91 1510.96 2164.76 1517.5 2164.18Z"/>
	<path fill="#41518C" transform="scale(0.489642 0.489551)" d="M1507.61 2247.71C1524.09 2247.59 1541.67 2247.77 1557.66 2250.44C1567.92 2252.15 1578.39 2255.03 1583.65 2261.01C1591.2 2269.57 1589.72 2281.61 1584.74 2290.53C1581.61 2296.13 1578.11 2298.37 1569.56 2300.98C1554.97 2303.74 1524.17 2308.26 1510.15 2304.32C1504.09 2302.61 1500.46 2299.57 1498.42 2295.79C1494.68 2288.85 1493.88 2254.97 1499.11 2249.56C1500.54 2248.08 1505.03 2248.07 1507.61 2247.71Z"/>
	<path fill="#FDFDFD" transform="scale(0.489642 0.489551)" d="M1453.46 979.047C1460.8 978.35 1468.82 978.098 1476.16 978.823C1502.74 981.448 1521.88 995.173 1536.9 1007.82C1567.62 1033.7 1589.96 1068.82 1581.17 1101.28C1575.46 1122.36 1530.49 1188.44 1503.3 1200.6C1496.86 1200.06 1495.25 1198.11 1490.72 1195.35C1464.84 1176.65 1443.86 1154.59 1421.46 1134.26C1397.96 1112.93 1372.59 1092.32 1350.71 1070.33C1372.02 1042.56 1407.28 992.518 1453.46 979.047Z"/>
	<path fill="#485E9A" transform="scale(0.489642 0.489551)" d="M1460.4 1014.27C1472.58 1014.54 1480.53 1018.07 1489.37 1023.05C1512.3 1035.98 1546.03 1065.15 1546.36 1084.94C1546.59 1098.73 1530.35 1133.6 1512.72 1142.09C1507.8 1144.46 1506.88 1144.23 1501.08 1143.71C1476.22 1132.53 1420.71 1082.3 1408.25 1064.36C1416.09 1046.14 1435.43 1025.51 1460.4 1014.27Z"/>
	<path fill="#FDFDFD" transform="scale(0.489642 0.489551)" d="M1908.06 2222.3Q1931.5 2200.83 1952.2 2178.33C1963.69 2166.06 1974.4 2151.98 1989.47 2141.22C1995.38 2136.99 2002.2 2133.13 2011.3 2131.9C2018.29 2130.96 2024 2130.86 2030.64 2132.67C2034.58 2135.91 2035.68 2137.81 2034.61 2141.88C2028.02 2166.9 1987.17 2189.69 1973.87 2213.89C1985.58 2236.18 2020.13 2295.71 2041.02 2312.99C2045.41 2316.63 2051.24 2318.42 2057.44 2320.67C2058.93 2321.21 2060.38 2321.78 2061.84 2322.33C2063.29 2300.62 2066.19 2291.17 2082.1 2271.27C2086.19 2266.15 2092.38 2260.3 2094.88 2254.86C2119.67 2226.18 2149.5 2195.71 2166.55 2165.03C2153.51 2164.97 2140.48 2165.86 2127.5 2166.54C2111.79 2165.75 2080.11 2169.24 2070.03 2160.4C2064.72 2155.76 2063.25 2144.68 2065.69 2139.39C2066.73 2137.12 2067.45 2137.04 2070.06 2135.52C2100.26 2131.6 2190.47 2131.21 2218.28 2137.42C2221.85 2139.68 2222.53 2142.29 2222.62 2145.33C2223.34 2170.63 2165.43 2235.07 2144.25 2258.67C2132.94 2271.27 2117.45 2284.94 2110.8 2298.79C2109.62 2301.26 2109.54 2302.95 2111.06 2305.35C2121.1 2307.83 2203.63 2305.69 2225.24 2307.25C2226.18 2315.71 2230.45 2329.2 2223.37 2336.57L2221.11 2335.85L2220.5 2337.12C2193.26 2339.05 2028.69 2339.83 2008.28 2335.33C1977.57 2312.91 1960.51 2270.71 1946.92 2242.28C1921.15 2256.98 1911.18 2271.29 1909.9 2293.04C1909.3 2303.24 1914.18 2328.96 1901.5 2335.71C1896.71 2338.25 1889.55 2338.41 1883.64 2337.72C1879.6 2337.26 1875.75 2335.93 1873.39 2333.84C1869.73 2330.63 1869.76 2325.93 1869.45 2322.14C1867.84 2302.47 1866.02 2142.64 1868.96 2137.45C1870.19 2135.29 1871.68 2134.22 1874.34 2132.7C1884.89 2130.05 1899.36 2132.47 1910.59 2133.35C1910.37 2163.01 1907.44 2192.66 1908.06 2222.3Z"/>
	<path fill="#2A3F89" fill-opacity="0.98823529" transform="scale(0.489642 0.489551)" d="M1928.81 1988.11C1931.25 1988.05 1931.25 1988.03 1934.07 1988.11C1945.42 1988.43 1961.69 1992.32 1969.17 1997.81C1971.69 1999.66 1970.9 1999.62 1970.55 2001.83L1965.61 2004.09C1953.29 2004.11 1929.98 2005.71 1920.29 2000.68C1917.8 1999.39 1918.34 1998.46 1917.95 1996.63C1920.9 1992.97 1923.93 1990.87 1928.81 1988.11Z"/>
	<path fill="#41518C" fill-opacity="0.98823529" transform="scale(0.489642 0.489551)" d="M2188.18 2003.39C2168.58 1993.09 2139.63 2008.09 2117.41 2004.29L2116 2002.59C2117.16 1999.86 2119.49 1998.6 2123.12 1997.03C2138.13 1990.55 2160.94 1984.1 2179.35 1985.79L2176.78 1988.44L2171.97 1988.97L2171.55 1992.24C2179.95 1997.49 2186.75 1994.44 2188.18 2003.39Z"/>
	<path fill="#41518C" transform="scale(0.489642 0.489551)" d="M2398.64 1456.45C2403.68 1483.13 2406.93 1510.57 2414.32 1537C2412.48 1546.24 2414.39 1555.59 2411.93 1564.69C2409.49 1556.98 2409.16 1544.14 2397.98 1539.5C2391.49 1524.43 2388.87 1504.79 2387.37 1489.15C2391.87 1491.05 2392.88 1491.31 2395.02 1494.34C2399.9 1490.17 2397.69 1463.6 2398.64 1456.45Z"/>
	<path fill="#485E9A" transform="scale(0.489642 0.489551)" d="M2241.23 1294.11C2278.92 1295.19 2316.5 1295.75 2354.21 1297.05C2352.85 1300.14 2354.18 1302.33 2356.39 1305.15C2360.24 1310.05 2366.38 1314.24 2370.35 1319.23L2369.88 1319.98C2369.16 1336.76 2376.46 1355.71 2380.12 1372.44C2384.95 1394.55 2387.95 1417.35 2394.65 1439.25C2395.84 1444.95 2396.59 1450.84 2398.64 1456.45C2397.69 1463.6 2399.9 1490.17 2395.02 1494.34C2392.88 1491.31 2391.87 1491.05 2387.37 1489.15C2383.47 1482.56 2383.05 1473.75 2381.57 1466.71C2368.35 1413.46 2361.43 1359.55 2347.5 1306.46C2312.98 1301.42 2275.15 1303.07 2239.85 1301.22C2240.61 1298.91 2240.81 1296.45 2241.23 1294.11Z"/>
	<path fill="#41518C" transform="scale(0.489642 0.489551)" d="M2309.68 1183.71C2316.37 1183.48 2322.93 1183.12 2329.23 1184.77C2358.81 1192.52 2381.76 1215.16 2393.18 1232.84C2403.01 1248.03 2407.84 1263.43 2396.8 1278.91C2392.6 1278.17 2389.3 1277.53 2385.6 1276.03C2362.38 1266.68 2308.69 1217.61 2303.75 1200.96C2301.72 1194.13 2303.43 1189.4 2309.68 1183.71Z"/>
	<path fill="#41518C" transform="scale(0.489642 0.489551)" d="M1781.79 1184.16C1789.66 1183.67 1800.28 1182.77 1807.44 1184.98C1808.72 1187.7 1808.88 1186.71 1807.99 1189.14C1805.52 1195.92 1796.78 1203.46 1791.15 1209.53C1769.63 1232.77 1748.61 1257.67 1710.03 1271.87C1703.35 1274.21 1693.6 1276.59 1685.92 1275.92L1684 1273.69C1684.53 1258.8 1701.87 1225.27 1714.99 1212.61C1731.31 1196.84 1752.35 1188.14 1781.79 1184.16Z"/>
	<path fill="#41518C" transform="scale(0.489642 0.489551)" d="M1584.67 1315.49C1586.58 1316.02 1588.43 1316.93 1590.19 1317.65C1595.68 1325.67 1593.45 1337.81 1595.24 1346.6C1596.51 1352.86 1598.93 1359.15 1607.76 1362.98C1621.89 1369.1 1663.22 1362.32 1679.78 1360.64C1671.37 1380.77 1653.55 1395.7 1627.31 1408.49C1609.66 1416.16 1593.38 1424.07 1577.41 1433.05C1567.08 1398.96 1559.9 1347.32 1584.67 1315.49Z"/>
	<path fill="#41518C" transform="scale(0.489642 0.489551)" d="M2495.91 1312.95C2499.56 1313.47 2502.68 1313.84 2505.4 1315.54C2532.46 1332.43 2522.04 1409.6 2518.87 1434.73C2501.61 1427.24 2485.85 1418.1 2468.89 1410.26C2452.5 1403.36 2418.51 1386.75 2415.46 1373.77C2415.02 1371.92 2415.34 1369.96 2417.27 1368.48C2421.82 1365.01 2430.12 1364.15 2436.96 1363.69C2451.45 1362.7 2474.78 1362.48 2486.05 1368.69C2487.03 1369.23 2487.96 1369.8 2488.91 1370.35L2491.77 1369.94C2499.93 1360.66 2495.84 1325.07 2495.91 1312.95Z"/>
	<path fill="#41518C" transform="scale(0.489642 0.489551)" d="M1658.27 1233.89L1663.64 1236.18C1670.01 1243.4 1667.01 1250.62 1665.6 1258.36C1664.16 1266.28 1662.49 1280.05 1672.46 1286.18C1685.01 1293.91 1704.09 1289.73 1719.67 1289.91C1725.35 1289.97 1727.53 1290.55 1731.53 1292.94C1733.35 1298.39 1730.41 1302.81 1726.84 1307.76C1716.89 1321.57 1697.85 1324.69 1676.66 1329.86C1657.66 1334.23 1639.88 1339.91 1622.5 1346.29C1623.49 1314.26 1618 1257.75 1658.27 1233.89Z"/>
	<path fill="#41518C" transform="scale(0.489642 0.489551)" d="M2424.82 1294.85L2424.66 1292.47C2424.24 1284.97 2427.56 1237.66 2433.07 1232.85L2436.37 1232.43C2453.01 1240.48 2461.91 1270.95 2464.4 1283.82C2466.56 1294.99 2477.74 1339 2469.78 1345.85C2460.56 1347.85 2448.63 1343.77 2440.29 1341.32C2420.08 1335.36 2390.41 1323.17 2369.88 1319.98L2370.35 1319.23C2366.38 1314.24 2360.24 1310.05 2356.39 1305.15C2354.18 1302.33 2352.85 1300.14 2354.21 1297.05L2370.48 1296.13C2388.98 1294.22 2406.12 1292.92 2424.82 1294.85Z"/>
	<path fill="#6175A4" transform="scale(0.489642 0.489551)" d="M2354.21 1297.05L2370.48 1296.13L2375.75 1296.84C2375.74 1297.35 2375.71 1297.85 2375.73 1298.35C2375.94 1304.87 2382.56 1311.48 2375.81 1317.59C2374.07 1318.14 2372.22 1318.88 2370.35 1319.23C2366.38 1314.24 2360.24 1310.05 2356.39 1305.15C2354.18 1302.33 2352.85 1300.14 2354.21 1297.05Z"/>
	<path fill="#41518C" transform="scale(0.489642 0.489551)" d="M1532.78 1404.38C1554 1413.37 1552.22 1448.1 1574.39 1460.86C1579.42 1461.55 1579.14 1461.38 1583.63 1459.74C1586.41 1454.99 1582.06 1451.67 1581.61 1446.64C1584.41 1444.29 1585.44 1443.56 1590.13 1442.56C1601.22 1440.18 1632 1437.25 1645.79 1435.23C1638.63 1452.68 1628.06 1469.77 1611.91 1484.83C1600.37 1498.22 1584 1513.77 1566.64 1524.48C1563.13 1526.64 1562.94 1527.08 1557.81 1527.12C1552.15 1524.82 1550.03 1522.1 1547.66 1518.31C1530.24 1490.47 1512.44 1432.67 1532.78 1404.38Z"/>
	<path fill="#41518C" transform="scale(0.489642 0.489551)" d="M2414.32 1537C2424.23 1583.42 2433.07 1630.42 2445.75 1676.54C2451.56 1684.57 2458.12 1692.68 2462.38 1701.07L2453.2 1698.31C2448.84 1701.24 2449.33 1703.82 2449.58 1707.69C2450.03 1714.87 2451.39 1718.8 2443.4 1724.67C2444.61 1712.54 2442.37 1703.75 2433.96 1692.66C2399.99 1704.48 2364.78 1714.93 2330.53 1726.46C2310.77 1733.11 2261.52 1752.23 2244.01 1755.3C2233.11 1745.23 2222.78 1758.16 2211.41 1756.48C2212.12 1753.45 2213.97 1753.11 2217.34 1751.13L2215.53 1747.57C2219.36 1744.68 2386.7 1683.03 2401.37 1677.9C2408.92 1675.25 2416.08 1672.93 2424.47 1671.43C2422.86 1661.36 2419.66 1651.37 2417.74 1641.32Q2408.66 1590.35 2397.98 1539.5C2409.16 1544.14 2409.49 1556.98 2411.93 1564.69C2414.39 1555.59 2412.48 1546.24 2414.32 1537Z"/>
	<path fill="#485E9A" transform="scale(0.489642 0.489551)" d="M2443.4 1724.67C2451.39 1718.8 2450.03 1714.87 2449.58 1707.69C2449.33 1703.82 2448.84 1701.24 2453.2 1698.31L2462.38 1701.07C2468.78 1711.28 2484.75 1749.7 2499.58 1752.64C2506.78 1754.07 2514.99 1751.58 2520.74 1749.09C2531.54 1744.43 2549.57 1732.66 2563.87 1733.83C2566.99 1734.08 2567.91 1735.71 2569.72 1737.14C2574.12 1749.77 2551.27 1770.9 2540.31 1781.29C2522.37 1798.3 2501.25 1811.33 2470.2 1818.95C2461.72 1814.22 2452.23 1809.46 2446.57 1803.23C2436.56 1792.22 2438.95 1768.59 2437.96 1755.94C2437.31 1747.75 2435.13 1731.37 2443.4 1724.67Z"/>
	<path fill="#41518C" transform="scale(0.489642 0.489551)" d="M1636.5 1693.86C1640.68 1694.89 1643.16 1695.96 1645.6 1698.38C1667.55 1720.11 1639.76 1782.81 1643.14 1809.65C1644.54 1820.79 1666.11 1832.35 1660.65 1844.21C1656.44 1845.83 1656.14 1845.89 1651.17 1845.73C1641.75 1840.37 1645.06 1827.94 1643.36 1820.53C1624.36 1816.85 1607.23 1813.53 1590.63 1806.53C1564.72 1794.18 1548.19 1776.37 1532.84 1758.92C1527.37 1752.71 1517.39 1743.44 1520.86 1736.35C1532.8 1736.2 1562.46 1744.18 1577.04 1745.9L1580.4 1746.28C1584.47 1749.81 1588.2 1754.38 1593.98 1756.91C1596.72 1758.1 1596.18 1757.67 1599.85 1757.25C1601.43 1756.08 1627.94 1704.57 1635.51 1695.06L1636.5 1693.86Z"/>
	<path fill="#485E9A" transform="scale(0.489642 0.489551)" d="M2512.85 1657.62C2512.98 1659.16 2512.92 1659.88 2513.67 1661.48C2515.15 1664.58 2517.99 1666.66 2522.19 1668.36C2544.76 1667.76 2566.63 1640.39 2585.13 1632.67C2588.75 1631.16 2588.8 1631.17 2593.23 1631.8C2594.62 1633.24 2594.8 1633.26 2595.73 1635.11C2604.84 1653.18 2569.56 1696.86 2552.76 1712.47C2545.05 1719.63 2532.96 1729.8 2518.02 1730.88C2512.45 1731.28 2507.32 1730.11 2502.95 1728.06C2481.24 1717.86 2473.29 1683.49 2468.91 1667.91C2465.81 1656.9 2457.44 1619.25 2467.32 1610.67L2471.44 1610.38C2487.36 1616.77 2496.02 1636.49 2503.99 1646.78C2506.62 1650.17 2507.32 1651.78 2513.16 1653.12L2512.85 1657.62Z"/>
	<path fill="#485E9A" transform="scale(0.489642 0.489551)" d="M1761.38 1834.09C1765.75 1835.75 1768.67 1837.58 1771.1 1840.36C1784.78 1855.99 1822.3 1935.37 1813.48 1951.46C1810.56 1956.78 1802.23 1960.56 1794.34 1962.9C1768.85 1970.46 1746.46 1969.88 1720.49 1964.67C1703.72 1960.54 1688.98 1954.54 1678.41 1945.37C1674.22 1941.73 1669.83 1936.48 1672.23 1931.92C1679.81 1917.49 1732.34 1925.59 1750.31 1920.62C1752.95 1919.89 1752.54 1918.81 1753.23 1917.23C1750.67 1916.44 1748.16 1915.72 1745.51 1915.04L1742.84 1914.37C1741.89 1913.25 1741.38 1912.86 1741.15 1911.42C1740.14 1905.04 1753.23 1847.19 1756.23 1840.24C1757.29 1837.8 1758.98 1836.1 1761.38 1834.09Z"/>
	<path fill="#485E9A" transform="scale(0.489642 0.489551)" d="M1693.73 1775.5C1697.73 1776.96 1701 1778.06 1703.77 1780.43C1709.96 1785.73 1712.44 1795.94 1714.96 1802.23C1727.53 1833.51 1739.34 1865.42 1730.88 1897.8C1715.49 1900.44 1700.79 1905.07 1686.28 1909.14C1663.51 1905.26 1647.58 1899.02 1630.05 1889.53C1612.83 1880.21 1593.6 1868.56 1586.48 1854.87C1584.97 1851.96 1584.33 1849.56 1586.63 1846.73C1601.65 1842 1642.82 1856.5 1663.34 1855.54C1667.99 1855.32 1668.61 1854.68 1671.59 1852.7C1671.39 1851.07 1671.34 1849.28 1670.85 1847.67C1665.25 1829.39 1681.38 1792.16 1693.73 1775.5Z"/>
	<path fill="#485E9A" transform="scale(0.489642 0.489551)" d="M2335.23 1832.51C2338.19 1833.2 2340.96 1833.91 2343.39 1835.21C2357.24 1842.6 2350.59 1880.1 2348.38 1891.61C2347.19 1897.77 2342.66 1907.53 2345.07 1913.44C2350.93 1927.79 2406.62 1922.65 2424.38 1929.39C2427.35 1932.24 2428.27 1932.92 2427.03 1936.48C2423.19 1947.45 2385.31 1961.62 2369.41 1966.37C2337.2 1975.11 2298.41 1962.36 2266.22 1957.91C2279.25 1939.71 2284.18 1921.12 2292.65 1902.11C2298.77 1888.39 2306.88 1874.93 2314.72 1861.56C2320.53 1851.66 2325.92 1841.42 2335.23 1832.51Z"/>
	<path fill="#41518C" transform="scale(0.489642 0.489551)" d="M1831.28 1883.33C1832.08 1883.5 1832.9 1883.64 1833.68 1883.84C1857.74 1890.18 1890.75 1933.07 1900.25 1947.87C1912.24 1966.57 1916.05 1984.54 1901.94 2003.44C1894.49 2013.41 1882 2021.32 1864.89 2024.9C1839.3 2030.25 1813.55 2025.2 1790.36 2018.34C1778.93 2014.31 1767.29 2009.7 1762.06 2001.96C1762.24 1999.97 1761.76 1998.38 1763.65 1996.66C1777.9 1983.67 1839.98 1983.87 1864.16 1980.76L1864.89 1978.49C1862.82 1975.34 1862.61 1974.08 1858.01 1972.08C1853.63 1973.69 1848.31 1975.56 1843.16 1975.94C1838.25 1976.31 1833.33 1976.06 1829.47 1973.96C1825.19 1971.62 1820.83 1965.53 1821.49 1962.06C1821.77 1960.62 1823.66 1960.29 1825.41 1959.51C1831.5 1959.28 1839.53 1959.65 1844.33 1957.1C1846.15 1951.81 1840.9 1945.54 1838.5 1940.44C1832.07 1926.81 1819.81 1896.21 1831.28 1883.33Z"/>
	<path fill="#485E9A" transform="scale(0.489642 0.489551)" d="M2398.18 1772.44C2399.09 1772.54 2400.06 1772.52 2400.93 1772.74C2424 1778.42 2408.84 1846 2425.9 1858.25C2428.91 1860.41 2432.34 1861.03 2436.83 1860.55C2442.14 1859.98 2445.06 1857.87 2447.71 1855.28C2446.85 1847.7 2435.11 1841.04 2431.58 1833.61C2429.07 1828.35 2429.63 1822.88 2434.6 1818.23C2436.74 1816.23 2435.93 1816.88 2440.22 1816.35C2453.36 1821 2459.02 1839.28 2465.78 1847.91C2476.59 1846.45 2495.67 1840.73 2506.01 1842.49C2508.8 1842.97 2508.81 1844.3 2509.86 1845.77C2509.07 1851.42 2504.79 1855.8 2500.63 1860.75Q2499.41 1862.15 2498.08 1863.51C2481.65 1880.73 2452.49 1902.6 2419.37 1907.4C2403.9 1909.65 2385.23 1907.74 2372.02 1902.2C2366.31 1899.8 2363.2 1897.05 2362.21 1892.77C2356.72 1868.87 2373.9 1791.95 2398.18 1772.44Z"/>
	<path fill="#485E9A" transform="scale(0.489642 0.489551)" d="M2179.35 1985.79C2181.16 1954.64 2211.55 1912.76 2249.06 1891.4C2254.67 1888.21 2259.88 1885.41 2267.54 1884.45C2271.47 1885.97 2270.85 1885.08 2271.83 1887.45C2279.55 1906.02 2239.28 1961.4 2245.04 1979.94C2269.28 1985.07 2315.86 1983.79 2335.55 1993.81C2337.4 1996.47 2337.87 1996.7 2335.88 1999.5C2327.65 2011.02 2304.18 2019.89 2285.55 2023.96C2263.5 2028.77 2240.27 2028.06 2219.35 2021.58C2210.22 2018.76 2193.6 2010.24 2188.79 2004.68C2188.45 2004.29 2188.38 2003.82 2188.18 2003.39C2186.75 1994.44 2179.95 1997.49 2171.55 1992.24L2171.97 1988.97L2176.78 1988.44L2179.35 1985.79Z"/>
	<path fill="#41518C" transform="scale(0.489642 0.489551)" d="M1507.63 1515.78C1527.86 1522.88 1538.2 1544.7 1550.65 1556.44C1554.46 1560.03 1558.48 1563.03 1565.47 1563.92C1571.45 1558.09 1558.56 1543.06 1559.54 1535.58L1562.65 1535.05Q1564.71 1535.87 1566.82 1536.63C1594.01 1546.29 1601.12 1523.36 1618.19 1520.64C1620.23 1522.1 1620.87 1523.07 1621.55 1525.01C1629.02 1546.41 1581.79 1608.11 1561.03 1628.27C1565.76 1634.36 1569.55 1640.65 1579.33 1644.23C1597.42 1643.14 1602.45 1619.32 1616.67 1613.03L1619.26 1613.83C1633.04 1634.42 1621.64 1667.73 1614.88 1688.84C1611.04 1698.6 1608.46 1713.46 1599.62 1721.91C1596.11 1725.26 1591.22 1727.87 1584.57 1728.5C1575.1 1729.39 1565.7 1726.22 1558.61 1722.68C1521.06 1703.96 1504.68 1666.54 1500.95 1638.25C1500.28 1633.12 1500.62 1630.02 1506.08 1626.01C1523.68 1628.72 1543.2 1663.86 1568.57 1671.31L1571.78 1670.21C1577.99 1651.64 1538.5 1611.87 1525.82 1595.14C1509.89 1574.12 1494.17 1538.39 1507.63 1515.78Z"/>
	<path fill="#41518C" transform="scale(0.489642 0.489551)" d="M2102.64 1378.83C2134.67 1359.78 2157.19 1336.02 2191.37 1317.69C2191.29 1323.12 2189.47 1327.07 2186.27 1332.11C2156.85 1342.71 2126.55 1371.1 2098.33 1386.4C2041.77 1369.58 1928.73 1340.74 1868.25 1353.08C1854.35 1355.92 1837.51 1361.74 1830.92 1370.23C1813.39 1392.77 1795.16 1483.72 1787.72 1513.26C1767.61 1593.13 1748.59 1673.03 1725.9 1752.63C1746.88 1755.24 1768.21 1756.9 1789.08 1759.76L1821.01 1763.05C1877.43 1769.1 1998.96 1785.92 2048.9 1783.05L2084.54 1781.16L2088.63 1782.31C2089.3 1785.39 2089.31 1788.16 2089.15 1791.25C2089.1 1795.21 2090.72 1802.21 2087.14 1805.44C2086.97 1805.6 2086.63 1805.66 2086.38 1805.77C2070.67 1805.11 2055.28 1803.34 2039.79 1801.69C2009.74 1796.77 1976.96 1794.75 1946.27 1791.61C1880.04 1784.85 1813.47 1778.36 1747.81 1769.73L1746.48 1769.69C1734.47 1768.37 1719.6 1767.58 1709.85 1762.86C1705.49 1754 1731 1676.38 1734.58 1663.31C1761.01 1566.78 1781.67 1469.79 1806.26 1373.1C1821.15 1363.18 1845.09 1351.85 1865.82 1346.82C1931.32 1330.96 2040.54 1362.92 2102.64 1378.83Z"/>
	<path fill="#41518C" transform="scale(0.489642 0.489551)" d="M2514.77 1447.82C2516.65 1451.69 2516.93 1454.66 2521.96 1457.33C2540.41 1451.08 2538.69 1414.9 2561.39 1407.08C2566.08 1408.28 2568.36 1409.79 2570.33 1412.76C2573.12 1416.98 2573.01 1423.35 2573.39 1427.95Q2573.74 1432.83 2573.58 1437.71Q2573.42 1442.6 2572.75 1447.47Q2572.08 1452.33 2570.89 1457.17Q2569.71 1462 2568.02 1466.77C2560.61 1487.94 2526.51 1540.5 2536.71 1558.83C2541.92 1558.35 2544.14 1555.9 2547.22 1553.35C2559.54 1543.16 2570.33 1523.25 2588.26 1517.19L2591.57 1518.19C2595.32 1524.96 2593.13 1533.34 2591.88 1540.34C2587.58 1564.46 2575.47 1587.18 2558.91 1609.14C2552 1618.31 2542.48 1628.11 2538.04 1637.8C2535.47 1643.4 2535.88 1650 2534.47 1655.84C2531.41 1658.05 2530.27 1659.3 2525.01 1659.33C2521.35 1659.36 2516.43 1658.22 2512.85 1657.62L2513.16 1653.12C2521.07 1638.46 2532.44 1631.83 2519.61 1616.32C2512.27 1607.45 2503.97 1598.85 2497.42 1589.74C2489.07 1578.15 2460.39 1532.45 2469.72 1520.36C2470.19 1519.75 2470.9 1519.22 2471.49 1518.65C2475.75 1518.5 2476.14 1518.87 2479.31 1520.53C2491.35 1526.81 2501.93 1540.28 2517.99 1542.31C2522.56 1541.3 2523.54 1540.93 2525.96 1538.1C2529.81 1533.6 2528.48 1528.12 2525.14 1523.74C2509.3 1502.99 2438.12 1462.56 2451.39 1438.05C2452.33 1436.31 2453.69 1436.49 2456.19 1435.87C2476.21 1438.49 2495.14 1444.21 2514.77 1447.82Z"/>
	<path fill="#2A3F89" transform="scale(0.489642 0.489551)" d="M2108.52 1781.97C2146 1776.73 2181.84 1758.62 2215.53 1747.57L2217.34 1751.13C2213.97 1753.11 2212.12 1753.45 2211.41 1756.48C2222.78 1758.16 2233.11 1745.23 2244.01 1755.3C2211.65 1767.81 2176.22 1777.82 2142.23 1788.56C2132.13 1788.68 2106.55 1790.51 2098.92 1786.31L2099.78 1784.03C2100.86 1783.88 2104.09 1783.47 2104.99 1783.22C2106.23 1782.88 2107.35 1782.39 2108.52 1781.97Z"/>
	<path fill="#41518C" transform="scale(0.489642 0.489551)" d="M2055.27 1764.14Q2008.15 1753.16 1959.42 1745.29C1932.48 1740.85 1811.33 1725.58 1797.22 1719.5C1814.95 1719.47 1835.45 1723.04 1852.84 1725.22C1906.5 1731.95 1959.09 1739.64 2011.51 1749.42C2033.59 1753.53 2058.54 1760.22 2081.25 1762.12C2089.54 1762.81 2095.48 1761.45 2101.36 1757.89C2150.92 1727.95 2334.97 1644.74 2398.59 1644.9C2398.99 1644.9 2399.39 1644.98 2399.79 1645.02L2399.79 1645.77C2377.41 1655.75 2347.14 1659.48 2322.69 1667.44C2279.53 1681.49 2106.25 1746.84 2101.52 1774.63C2101.01 1777.59 2102.14 1778.94 2105.81 1780.87C2106.64 1781.3 2107.62 1781.6 2108.52 1781.97C2107.35 1782.39 2106.23 1782.88 2104.99 1783.22C2104.09 1783.47 2100.86 1783.88 2099.78 1784.03L2098.92 1786.31C2106.55 1790.51 2132.13 1788.68 2142.23 1788.56C2132.18 1792.35 2099.05 1807.3 2089.91 1806.3C2088.72 1806.17 2087.56 1805.95 2086.38 1805.77C2086.63 1805.66 2086.97 1805.6 2087.14 1805.44C2090.72 1802.21 2089.1 1795.21 2089.15 1791.25C2089.31 1788.16 2089.3 1785.39 2088.63 1782.31L2084.54 1781.16L2048.9 1783.05C2054.53 1780.27 2060.91 1780.11 2062.61 1775.17C2064.31 1770.27 2059.81 1767.57 2055.27 1764.14ZM2055.27 1764.14C2059.81 1767.57 2064.31 1770.27 2062.61 1775.17C2060.91 1780.11 2054.53 1780.27 2048.9 1783.05L2084.54 1781.16L2086.3 1780.81C2089.76 1778.39 2092.07 1776.17 2091.9 1772.75C2091.74 1769.59 2091.07 1768.86 2087.46 1766.98C2076.85 1766.97 2068.12 1766.56 2057.92 1764.65C2057.03 1764.49 2056.15 1764.31 2055.27 1764.14Z"/>
	<path fill="#FDFDFD" fill-opacity="0.043137256" transform="scale(0.489642 0.489551)" d="M2055.27 1764.14C2056.15 1764.31 2057.03 1764.49 2057.92 1764.65C2068.12 1766.56 2076.85 1766.97 2087.46 1766.98C2091.07 1768.86 2091.74 1769.59 2091.9 1772.75C2092.07 1776.17 2089.76 1778.39 2086.3 1780.81L2084.54 1781.16L2048.9 1783.05C2054.53 1780.27 2060.91 1780.11 2062.61 1775.17C2064.31 1770.27 2059.81 1767.57 2055.27 1764.14Z"/>
	<defs>
		<linearGradient id="gradient_0" gradientUnits="userSpaceOnUse" x1="2111.4795" y1="1216.3944" x2="2306.5642" y2="1414.5094">
			<stop offset="0" stop-color="#344083"/>
			<stop offset="1" stop-color="#4058AF"/>
		</linearGradient>
	</defs>
	<path fill="url(#gradient_0)" transform="scale(0.489642 0.489551)" d="M2191.37 1317.69C2208.78 1295.21 2257.39 1156.29 2271.35 1150.94C2276.9 1151.01 2282.81 1151.74 2286.43 1154.61C2289.91 1157.38 2290.18 1161.36 2289.68 1164.71C2288.57 1172.02 2283.92 1179.2 2281.52 1186.39C2269.47 1222.5 2252.64 1257.92 2241.23 1294.11C2240.81 1296.45 2240.61 1298.91 2239.85 1301.22C2239.39 1301.57 2238.87 1301.89 2238.48 1302.27C2231.9 1308.56 2224.69 1334.84 2221.03 1343.78C2210.52 1369.52 2160.54 1486.33 2134.54 1495.42L2130.22 1495.24C2127.66 1492.4 2128.14 1490.65 2129.31 1487.57C2131.82 1481 2136.18 1474.58 2138.89 1467.98C2149.98 1440.91 2159.53 1413.53 2169.05 1386.23C2175.31 1368.32 2182.5 1350.29 2186.27 1332.11C2189.47 1327.07 2191.29 1323.12 2191.37 1317.69Z"/>
</svg>
